<?xml version="1.0" encoding="UTF-8"?>
<svg version="1.1" xmlns="http://www.w3.org/2000/svg" width="512" height="512">
<path d="M0 0 C1.47244675 -0.00143509 1.47244675 -0.00143509 2.97463989 -0.00289917 C5.04364079 -0.00357567 7.11264388 -0.00175862 9.18164062 0.00244141 C12.277395 0.00773906 15.37300041 0.00250828 18.46875 -0.00390625 C28.10878081 -0.00771049 37.72952842 0.10015733 47.359375 0.56640625 C48.14061737 0.60357758 48.92185974 0.6407489 49.72677612 0.67904663 C80.14574773 2.33766684 108.10061791 12.09155843 130.4453125 33.1328125 C131.074375 33.68582031 131.7034375 34.23882812 132.3515625 34.80859375 C147.84115566 48.99565294 155.10721564 72.80421426 156.3515625 93.3359375 C156.39796875 94.72039062 156.39796875 94.72039062 156.4453125 96.1328125 C156.496875 97.28265625 156.5484375 98.4325 156.6015625 99.6171875 C157.22040604 125.29919445 151.40506927 150.21710683 134.4453125 170.1328125 C133.57326172 171.22142578 133.57326172 171.22142578 132.68359375 172.33203125 C115.67229094 192.76699249 88.73874354 203.90747112 62.79492188 206.85479736 C50.81908244 207.84878331 38.73363176 207.65317616 26.7253418 207.63378906 C22.44941123 207.62782614 18.17459009 207.65883332 13.89887524 207.69890594 C10.57792617 207.72475695 7.25724834 207.72766434 3.93621254 207.72401428 C2.3585964 207.72569956 0.78096694 207.73528476 -0.79654884 207.75315857 C-2.99249639 207.77536248 -5.18613877 207.76565262 -7.38208008 207.74804688 C-8.62605057 207.75010132 -9.87002106 207.75215576 -11.15168762 207.75427246 C-16.69826748 206.74134933 -20.11073853 203.15677645 -23.37890625 198.63671875 C-23.84433838 198.0029834 -24.30977051 197.36924805 -24.78930664 196.71630859 C-25.26875732 196.04937988 -25.74820801 195.38245117 -26.2421875 194.6953125 C-27.29552271 193.26072486 -28.35023789 191.82714955 -29.40625 190.39453125 C-29.93250977 189.6782959 -30.45876953 188.96206055 -31.00097656 188.22412109 C-33.31671082 185.1071224 -35.7084967 182.05324377 -38.1171875 179.0078125 C-38.56811768 178.43659668 -39.01904785 177.86538086 -39.48364258 177.27685547 C-40.83942592 175.56119621 -42.19700971 173.84697278 -43.5546875 172.1328125 C-45.34860401 169.863747 -47.14017745 167.59285474 -48.9296875 165.3203125 C-49.37908691 164.74966064 -49.82848633 164.17900879 -50.29150391 163.59106445 C-54.46451215 158.27655079 -58.55379732 152.89945728 -62.64575195 147.52246094 C-66.23746319 142.8170696 -69.89902634 138.17621972 -73.6171875 133.5703125 C-77.87742536 128.28503902 -82.03596271 122.93265039 -86.1171875 117.5078125 C-86.86850952 116.51285767 -86.86850952 116.51285767 -87.63500977 115.49780273 C-94.98058833 105.67304417 -94.98058833 105.67304417 -94.9296875 99.6328125 C-94.93742188 98.715 -94.94515625 97.7971875 -94.953125 96.8515625 C-94.13116391 91.24288686 -90.1217802 87.1416052 -86.6796875 82.8203125 C-86.20281494 82.21711182 -85.72594238 81.61391113 -85.23461914 80.99243164 C-80.98124165 75.6291788 -76.65246312 70.32776903 -72.32275391 65.02612305 C-68.16170702 59.91702857 -64.14341659 54.71672988 -60.1484375 49.4765625 C-57.19257549 45.63394189 -54.12356186 41.88534038 -51.0546875 38.1328125 C-47.12854492 33.33102668 -43.25330656 28.50257676 -39.4921875 23.5703125 C-35.72385805 18.63868923 -31.9133699 13.74414011 -28.0546875 8.8828125 C-27.27919556 7.89752563 -27.27919556 7.89752563 -26.48803711 6.89233398 C-22.08694936 1.37024905 -22.08694936 1.37024905 -18.54293823 0.82107544 C-12.34584359 0.2086808 -6.22525217 -0.01379135 0 0 Z M37.4453125 58.1328125 C37.4453125 88.1628125 37.4453125 118.1928125 37.4453125 149.1328125 C53.3779887 149.1328125 68.63841968 146.27059753 80.6328125 135.07421875 C88.90417166 126.21459482 93.8892665 114.71410656 93.65625 102.52734375 C92.50562094 89.46557307 87.62040373 79.23580923 78.11328125 70.23828125 C65.99897451 60.67808896 52.50622595 58.1328125 37.4453125 58.1328125 Z " fill="#FBFBFB" transform="translate(333.5546875,104.8671875)"/>
<path d="M0 0 C1.31280441 -0.0033284 2.62560883 -0.0066568 3.97819519 -0.01008606 C6.72855455 -0.01600624 9.47888279 -0.01793297 12.22924805 -0.01733398 C15.73005442 -0.01723176 19.23066076 -0.03097782 22.73141956 -0.04810619 C26.11261573 -0.06195935 29.49377589 -0.0613155 32.875 -0.0625 C34.11893021 -0.06968552 35.36286041 -0.07687103 36.64448547 -0.08427429 C43.26181459 -0.0669533 49.26168622 0.19234654 55.60546875 2.16796875 C59.03968549 7.31929386 58.75250216 12.86900907 58.73918152 18.89694214 C58.74144708 19.6559649 58.74371263 20.41498766 58.74604684 21.19701111 C58.75235661 23.73015196 58.75155943 26.2632389 58.75073242 28.79638672 C58.75372578 30.6167813 58.75712872 32.43717525 58.76091003 34.25756836 C58.76973577 39.19561265 58.77208754 44.13363962 58.77272582 49.07169104 C58.77343708 52.15832162 58.77557282 55.24494781 58.77822304 58.3315773 C58.78747139 69.10402964 58.79155852 79.87646961 58.79077148 90.64892578 C58.79017067 100.68385998 58.8007246 110.71874044 58.81651515 120.75366104 C58.82959775 129.37549431 58.83495508 137.99731002 58.83431607 146.61915314 C58.83406132 151.76581406 58.83690016 156.9124272 58.84749413 162.05907822 C58.85718732 166.90014852 58.85724588 171.74112547 58.84997749 176.5821991 C58.84893321 178.3558834 58.85128526 180.12957355 58.85733795 181.90324783 C58.86508297 184.33061694 58.86039663 186.75766561 58.85270691 189.18502808 C58.85785047 189.88134901 58.86299404 190.57766994 58.86829346 191.29509151 C58.8337163 196.25851222 58.124078 200.4697145 56.60546875 205.16796875 C52.87545315 207.65464582 50.94032959 207.42691055 46.48217773 207.44262695 C45.39835312 207.45029335 45.39835312 207.45029335 44.29263306 207.45811462 C41.89552574 207.47204585 39.49870562 207.47104827 37.1015625 207.46875 C35.42261144 207.472641 33.74366135 207.4769765 32.06471252 207.48173523 C28.53309965 207.48920934 25.00158665 207.48890194 21.4699707 207.48364258 C16.9955022 207.47791021 12.52145611 207.49461975 8.04705715 207.51798725 C4.56950072 207.53291349 1.09204089 207.53356996 -2.38554192 207.53047752 C-4.03136962 207.53098346 -5.67720383 207.53608065 -7.32299995 207.54628944 C-21.79761432 207.62490928 -36.66680379 206.60379315 -50.33203125 201.41796875 C-51.37411743 201.03499634 -51.37411743 201.03499634 -52.43725586 200.64428711 C-58.63176239 198.26631481 -64.07562648 195.14389424 -69.39453125 191.16796875 C-70.10867187 190.67039062 -70.8228125 190.1728125 -71.55859375 189.66015625 C-82.24341065 181.45058651 -87.2973668 167.731786 -89.08203125 154.79296875 C-89.21012606 153.2531056 -89.31227165 151.71095941 -89.39453125 150.16796875 C-89.44738281 149.21535156 -89.50023438 148.26273438 -89.5546875 147.28125 C-90.04259022 130.03494935 -86.25559755 114.87357639 -74.32421875 102.0078125 C-72.44496814 100.21605736 -70.50664978 98.6746133 -68.39453125 97.16796875 C-69.77669381 94.06152419 -71.4053889 91.96905369 -73.76953125 89.54296875 C-83.31082025 78.83133453 -84.15603294 64.00353313 -83.546875 50.29443359 C-82.61186432 37.24324287 -78.20117733 25.08310155 -68.39453125 16.16796875 C-48.6418582 0.97360486 -23.92276354 0.02157693 0 0 Z M-22.83203125 54.91796875 C-25.00570231 58.04805507 -25.32803622 60.3777523 -25.39453125 64.16796875 C-23.27913809 69.22140796 -19.64731846 72.09521293 -14.76953125 74.41796875 C-10.1810765 75.56567459 -10.1810765 75.56567459 -0.39453125 75.16796875 C-0.39453125 66.91796875 -0.39453125 58.66796875 -0.39453125 50.16796875 C-12.63790302 49.85547292 -12.63790302 49.85547292 -22.83203125 54.91796875 Z M-27.39453125 131.79296875 C-30.10225746 136.36225673 -30.55131372 139.98295794 -29.39453125 145.16796875 C-26.65551147 150.1785988 -22.70355487 153.13472566 -17.39453125 155.16796875 C-11.28320648 156.56020102 -11.28320648 156.56020102 -0.39453125 156.16796875 C-0.39453125 145.93796875 -0.39453125 135.70796875 -0.39453125 125.16796875 C-15.16907036 124.48745535 -15.16907036 124.48745535 -27.39453125 131.79296875 Z " fill="#FAFAFA" transform="translate(107.39453125,104.83203125)"/>
<path d="M0 0 C3.88757835 1.25822038 7.184004 -0.14313032 10.8828125 -1.453125 C19.3960824 -3.95035084 29.97253416 -3.53485449 37.8828125 0.609375 C44.25766071 4.45714195 46.88498724 9.56328162 48.8828125 16.609375 C50.05035557 22.10089403 50.0611884 27.49415879 50.0859375 33.08203125 C50.09163757 34.08270126 50.09733765 35.08337128 50.10321045 36.11436462 C50.11262781 38.2231237 50.1191814 40.33189727 50.12304688 42.44067383 C50.13279016 45.66448401 50.16385974 48.88766631 50.1953125 52.11132812 C50.20183969 54.16405873 50.20709127 56.21679387 50.2109375 58.26953125 C50.2232843 59.23109634 50.2356311 60.19266144 50.24835205 61.18336487 C50.2196861 69.79156577 50.2196861 69.79156577 46.8828125 73.609375 C42.71830784 76.42377497 38.29494203 75.94025874 33.4453125 75.921875 C32.1759082 75.94604492 32.1759082 75.94604492 30.88085938 75.97070312 C26.13043314 75.97442311 22.60465144 75.90094354 18.8828125 72.609375 C16.56478981 68.26378066 16.6223798 64.05097986 16.6875 59.24609375 C16.6903299 58.45411087 16.69315979 57.66212799 16.69607544 56.84614563 C16.70722387 54.32956501 16.73231828 51.81334711 16.7578125 49.296875 C16.76784921 47.58529162 16.77697386 45.87370263 16.78515625 44.16210938 C16.80714569 39.97772594 16.84163842 35.79361186 16.8828125 31.609375 C15.8928125 32.104375 15.8928125 32.104375 14.8828125 32.609375 C14.86299316 33.4657959 14.84317383 34.3222168 14.82275391 35.20458984 C14.74393742 38.42909842 14.65722617 41.65327821 14.56542969 44.87744141 C14.52751005 46.26407913 14.49259797 47.6508029 14.4609375 49.03759766 C13.96441357 70.52777393 13.96441357 70.52777393 9.8828125 74.609375 C5.64392792 76.00569387 1.36054163 75.79332863 -3.0546875 75.796875 C-3.85326172 75.80912109 -4.65183594 75.82136719 -5.47460938 75.83398438 C-13.56473684 75.8540924 -13.56473684 75.8540924 -17.1171875 73.609375 C-19.50703068 69.23208952 -19.37647427 64.88324054 -19.3125 60.02734375 C-19.3096701 59.21316483 -19.30684021 58.3989859 -19.30392456 57.56013489 C-19.29277334 54.972229 -19.26767833 52.38467542 -19.2421875 49.796875 C-19.23215115 48.03711439 -19.22302644 46.27734833 -19.21484375 44.51757812 C-19.1928506 40.21470902 -19.15835586 35.91210164 -19.1171875 31.609375 C-20.1071875 31.609375 -21.0971875 31.609375 -22.1171875 31.609375 C-22.11195068 32.32891357 -22.10671387 33.04845215 -22.10131836 33.78979492 C-21.87800341 69.10465146 -21.87800341 69.10465146 -24.9765625 72.8671875 C-29.22701959 76.32650112 -33.72355283 75.82608237 -38.9296875 75.859375 C-39.72439453 75.88 -40.51910156 75.900625 -41.33789062 75.921875 C-46.32098766 75.95484835 -49.84897837 75.4771827 -54.1171875 72.609375 C-55.2182991 69.3060402 -55.25077735 66.84450911 -55.26245117 63.36547852 C-55.26883102 62.077267 -55.27521088 60.78905548 -55.28178406 59.46180725 C-55.28331271 58.05396563 -55.28442668 56.64612351 -55.28515625 55.23828125 C-55.28836969 53.79483507 -55.29173383 52.35138922 -55.29524231 50.90794373 C-55.30122963 47.8825505 -55.3030826 44.85718584 -55.30249023 41.83178711 C-55.30238859 37.95688484 -55.31604486 34.08216572 -55.33326244 30.20730686 C-55.34438535 27.22616232 -55.34640936 24.24506202 -55.34588051 21.26389885 C-55.34706003 19.83537095 -55.35148026 18.40684189 -55.35921288 16.97833443 C-55.36901882 14.97980232 -55.3648689 12.9812165 -55.36010742 10.98266602 C-55.36153244 9.84587906 -55.36295746 8.7090921 -55.36442566 7.53785706 C-55.12002738 4.6430127 -54.73685236 2.99797759 -53.1171875 0.609375 C-47.84197832 -2.05748986 -42.31194919 -1.58497069 -36.5546875 -1.453125 C-34.69930005 -1.41850478 -32.84382153 -1.38840974 -30.98828125 -1.36328125 C-30.17286865 -1.34531494 -29.35745605 -1.32734863 -28.51733398 -1.30883789 C-5.36332326 -2.09783124 -5.36332326 -2.09783124 0 0 Z " fill="#040404" transform="translate(75.1171875,341.390625)"/>
<path d="M0 0 C-0.60778606 3.27514016 -1.71111295 5.23804553 -3.7734375 7.8359375 C-4.63110718 8.92672607 -4.63110718 8.92672607 -5.50610352 10.03955078 C-6.12283936 10.81024902 -6.7395752 11.58094727 -7.375 12.375 C-8.00913818 13.1779248 -8.64327637 13.98084961 -9.29663086 14.80810547 C-10.58791774 16.44246908 -11.88177234 18.07480735 -13.17822266 19.70507812 C-14.76783985 21.70754417 -16.34674799 23.71746877 -17.91796875 25.734375 C-23.26639312 32.59670683 -28.72341652 39.36353385 -34.22802734 46.10107422 C-37.61994473 50.26493825 -40.93638743 54.47548474 -44.1875 58.75 C-47.38319476 62.94370299 -50.66403032 67.03139212 -54.0625 71.0625 C-63.03707338 81.36509492 -63.03707338 81.36509492 -70 93 C-69.34 93 -68.68 93 -68 93 C-66.54082037 94.58994115 -65.15750645 96.24987572 -63.8125 97.9375 C-62.59820312 99.45537109 -62.59820312 99.45537109 -61.359375 101.00390625 C-60.58078125 101.99261719 -59.8021875 102.98132813 -59 104 C-58.40703125 104.75152344 -57.8140625 105.50304687 -57.203125 106.27734375 C-55.45725605 108.50956191 -53.72696618 110.75312611 -52 113 C-51.27425781 113.94101563 -50.54851562 114.88203125 -49.80078125 115.8515625 C-46.14204746 120.60025725 -42.49062106 125.3543162 -38.85546875 130.12109375 C-33.34080814 137.35095057 -27.80022021 144.55536001 -22.16430664 151.69116211 C-18.00586738 156.96713029 -13.93209999 162.30614657 -9.86230469 167.65063477 C-5.74459726 173.04972235 -1.56750521 178.39905639 2.66210938 183.7109375 C5.89493949 187.78987897 5.89493949 187.78987897 7 190 C15.44208113 190.07015668 23.88403624 190.12313894 32.32633877 190.15543652 C36.24834582 190.17095402 40.17015042 190.1919303 44.09204102 190.22631836 C47.89167775 190.25941799 51.6911224 190.27695693 55.49089241 190.28463173 C56.92544636 190.29008615 58.35999232 190.30073017 59.7944622 190.31719017 C70.51829958 190.43511185 80.52299562 189.18147494 91 187 C91.71545927 186.85188559 92.43091854 186.70377117 93.1680584 186.55116844 C97.11848199 185.72889954 101.06203129 184.87995814 105 184 C105 183.34 105 182.68 105 182 C105.69222656 181.75507813 106.38445312 181.51015625 107.09765625 181.2578125 C129.67926622 172.62979288 147.36305004 155.67179082 158 134 C167.51278982 110.76053203 168.17164457 82.5107939 159 59 C149.48155152 36.96100509 133.49153122 20.50435769 111.33203125 10.8359375 C109.57414737 10.17011953 107.79032163 9.57290292 106 9 C112.11078339 6.9630722 118.95594884 11.99419705 124.4453125 14.6953125 C133.57465611 19.57654991 140.75244119 25.65089921 148 33 C149.14275391 34.12728516 149.14275391 34.12728516 150.30859375 35.27734375 C165.30175981 50.97194448 172.06630475 73.72306574 173 95 C173.07927734 96.7325 173.07927734 96.7325 173.16015625 98.5 C173.75563459 124.18323991 167.96400862 149.07930143 151 169 C150.12794922 170.08861328 150.12794922 170.08861328 149.23828125 171.19921875 C132.22697844 191.63417999 105.29343104 202.77465862 79.34960938 205.72198486 C67.37376994 206.71597081 55.28831926 206.52036366 43.2800293 206.50097656 C39.00409873 206.49501364 34.72927759 206.52602082 30.45356274 206.56609344 C27.13261367 206.59194445 23.81193584 206.59485184 20.49090004 206.59120178 C18.9132839 206.59288706 17.33565444 206.60247226 15.75813866 206.62034607 C13.56219111 206.64254998 11.36854873 206.63284012 9.17260742 206.61523438 C7.92863693 206.61728882 6.68466644 206.61934326 5.40299988 206.62145996 C-0.14357998 205.60853683 -3.55605103 202.02396395 -6.82421875 197.50390625 C-7.28965088 196.8701709 -7.75508301 196.23643555 -8.23461914 195.58349609 C-8.71406982 194.91656738 -9.19352051 194.24963867 -9.6875 193.5625 C-10.74083521 192.12791236 -11.79555039 190.69433705 -12.8515625 189.26171875 C-13.37782227 188.5454834 -13.90408203 187.82924805 -14.44628906 187.09130859 C-16.76202332 183.9743099 -19.1538092 180.92043127 -21.5625 177.875 C-22.01343018 177.30378418 -22.46436035 176.73256836 -22.92895508 176.14404297 C-24.28473842 174.42838371 -25.64232221 172.71416028 -27 171 C-28.79391651 168.7309345 -30.58548995 166.46004224 -32.375 164.1875 C-32.82439941 163.61684814 -33.27379883 163.04619629 -33.73681641 162.45825195 C-37.90982465 157.14373829 -41.99910982 151.76664478 -46.09106445 146.38964844 C-49.68277569 141.6842571 -53.34433884 137.04340722 -57.0625 132.4375 C-61.32273786 127.15222652 -65.48127521 121.79983789 -69.5625 116.375 C-70.31382202 115.38004517 -70.31382202 115.38004517 -71.08032227 114.36499023 C-78.42590083 104.54023167 -78.42590083 104.54023167 -78.375 98.5 C-78.38273438 97.5821875 -78.39046875 96.664375 -78.3984375 95.71875 C-77.57647641 90.11007436 -73.5670927 86.0087927 -70.125 81.6875 C-69.64812744 81.08429932 -69.17125488 80.48109863 -68.67993164 79.85961914 C-64.42655415 74.4963663 -60.09777562 69.19495653 -55.76806641 63.89331055 C-51.60701952 58.78421607 -47.58872909 53.58391738 -43.59375 48.34375 C-40.63788799 44.50112939 -37.56887436 40.75252788 -34.5 37 C-30.57385742 32.19821418 -26.69861906 27.36976426 -22.9375 22.4375 C-19.16917055 17.50587673 -15.3586824 12.61132761 -11.5 7.75 C-10.98300537 7.09314209 -10.46601074 6.43628418 -9.93334961 5.75952148 C-5.34302552 0 -5.34302552 0 0 0 Z " fill="#030303" transform="translate(317,106)"/>
<path d="M0 0 C0.74636719 -0.00773437 1.49273437 -0.01546875 2.26171875 -0.0234375 C6.38050259 -0.00885773 9.85971909 0.10386424 13.5 2.25 C16.29071425 6.07113005 15.78799851 10.56487548 15.7746582 15.0859375 C15.77976913 15.97742493 15.78488007 16.86891235 15.79014587 17.78741455 C15.80404267 20.7333447 15.80308523 23.67904097 15.80078125 26.625 C15.80466772 28.67236417 15.80900229 30.71972753 15.81376648 32.76708984 C15.82122858 37.05764378 15.82093717 41.34811543 15.81567383 45.63867188 C15.80987485 51.14017576 15.82682069 56.64134347 15.8500185 62.14279175 C15.86473984 66.3703814 15.8656298 70.59788975 15.86250877 74.82550049 C15.86302265 76.85411241 15.86827272 78.88272881 15.87832069 80.91131592 C15.89063866 83.74578816 15.88392165 86.57960104 15.87231445 89.4140625 C15.87995819 90.25366516 15.88760193 91.09326782 15.89547729 91.95831299 C15.86531425 95.28590566 15.75390586 97.77674391 14.16423035 100.73974609 C11.19655123 103.43285224 8.34798252 103.36273762 4.53515625 103.3125 C3.57029297 103.30476563 2.60542969 103.29703125 1.61132812 103.2890625 C-0.41731835 103.26307087 -2.44596419 103.2370294 -4.47460938 103.2109375 C-5.44076172 103.20320313 -6.40691406 103.19546875 -7.40234375 103.1875 C-8.72480103 103.17009766 -8.72480103 103.17009766 -10.07397461 103.15234375 C-12.38506448 103.24537343 -14.27415437 103.66547115 -16.5 104.25 C-27.38845094 105.18765613 -37.96417379 105.72404939 -46.6640625 98.4375 C-56.11732923 89.08735981 -56.83384003 78.23449529 -56.9375 65.625 C-56.9478125 64.57634766 -56.958125 63.52769531 -56.96875 62.44726562 C-56.84161674 51.19597255 -54.57117643 41.0820144 -46.97265625 32.53125 C-40.20722255 26.03643365 -32.47161298 25.01748848 -23.375 25.0625 C-21.0829766 25.11015593 -18.79103467 25.16752275 -16.5 25.25 C-16.53480469 24.00863281 -16.56960938 22.76726562 -16.60546875 21.48828125 C-16.63361584 19.84636774 -16.66091501 18.20443954 -16.6875 16.5625 C-16.71263672 15.74587891 -16.73777344 14.92925781 -16.76367188 14.08789062 C-16.82107048 9.36207203 -16.77394796 5.964262 -13.5 2.25 C-9.2631405 -0.29825607 -4.79803354 -0.04972055 0 0 Z M-21.5 57.25 C-24.11437258 61.17155886 -23.71703011 64.69236768 -23.5 69.25 C-23.17 70.24 -22.84 71.23 -22.5 72.25 C-19.63275314 71.67655063 -18.6385485 71.3885485 -16.5 69.25 C-16.14360439 67.14582032 -16.14360439 67.14582032 -16.1875 64.8125 C-16.17074219 64.03003906 -16.15398437 63.24757813 -16.13671875 62.44140625 C-16.58131385 59.75949386 -17.3557642 58.87252392 -19.5 57.25 C-20.16 57.25 -20.82 57.25 -21.5 57.25 Z " fill="#F8F8F8" transform="translate(308.5,313.75)"/>
<path d="M0 0 C9.05990213 1.60740199 12.50580874 6.82055747 17.54443359 13.97705078 C20.25018035 17.73750326 23.13977501 21.35660445 26 25 C27.20917788 26.55142547 28.4175239 28.10349967 29.625 29.65625 C30.2025 30.39875 30.78 31.14125 31.375 31.90625 C34.38981067 35.7907176 37.38078608 39.69339239 40.375 43.59375 C43.56628058 47.74241475 46.78435929 51.87020963 50 56 C61.40380729 70.65436792 61.40380729 70.65436792 64.734375 75.0546875 C66.24056621 77.01273608 67.7932924 78.93587764 69.390625 80.8203125 C74.21347292 86.73926222 75.86728383 90.7884238 75.57421875 98.46875 C74.89705874 101.45378189 74.47750567 102.23314269 72 104 C68.81213379 104.36749268 68.81213379 104.36749268 64.82226562 104.35644531 C64.09512863 104.35848969 63.36799164 104.36053406 62.61882019 104.36264038 C60.2143746 104.36564936 57.81061413 104.34716778 55.40625 104.328125 C53.73620778 104.32506733 52.06616302 104.32319127 50.39611816 104.32244873 C46.89565271 104.31784487 43.39541719 104.30341628 39.89501953 104.28125 C35.4057511 104.25296762 30.91666382 104.24203849 26.42731476 104.2375679 C22.97868026 104.2334127 19.53008245 104.22359437 16.08146667 104.21169281 C14.42604364 104.20599146 12.77061708 104.2012323 11.1151886 104.19742584 C8.80264076 104.19055773 6.49023637 104.17692262 4.17773438 104.16113281 C2.86107788 104.15430481 1.54442139 104.14747681 0.18786621 104.14044189 C-3 104 -3 104 -6 103 C-8.57434705 98.59371431 -8.28931771 93.99740626 -8.2746582 89.05053711 C-8.27976913 88.15890366 -8.28488007 87.2672702 -8.29014587 86.34861755 C-8.3040203 83.40812426 -8.30308711 80.46786583 -8.30078125 77.52734375 C-8.30466855 75.48140882 -8.30900329 73.4354747 -8.31376648 71.38954163 C-8.32122346 67.104964 -8.32094058 62.82046879 -8.31567383 58.53588867 C-8.30987124 53.04226051 -8.32683186 47.54896862 -8.3500185 42.05539608 C-8.36473842 37.83209762 -8.36563006 33.60888056 -8.36250877 29.38556099 C-8.36302258 27.35974014 -8.36827135 25.33391481 -8.37832069 23.30811882 C-8.39063782 20.47854487 -8.38392251 17.64963149 -8.37231445 14.82006836 C-8.37995819 13.98203674 -8.38760193 13.14400513 -8.39547729 12.28057861 C-8.36505494 8.93064668 -8.23983724 6.44871093 -6.6446991 3.46437073 C-5 2 -5 2 -2.3125 1.75 C-1.549375 1.8325 -0.78625 1.915 0 2 C0 1.34 0 0.68 0 0 Z " fill="#FAFAFA" transform="translate(201,208)"/>
<path d="M0 0 C1.65 0.66 3.3 1.32 5 2 C6.90069095 7.31658661 7.29011644 12.33854761 7.25396729 17.96948242 C7.25864726 19.11057984 7.25864726 19.11057984 7.26342177 20.27472973 C7.27134375 22.80172361 7.26510098 25.32847346 7.25878906 27.85546875 C7.2615015 29.67615905 7.26506386 31.49684826 7.26940918 33.3175354 C7.2785053 38.24722117 7.27500038 43.17682297 7.26865101 48.10651016 C7.26357664 53.27307608 7.26828646 58.43963496 7.27142334 63.60620117 C7.27505879 72.28142585 7.27027492 80.95661644 7.26074219 89.63183594 C7.24985846 99.65204824 7.25338433 109.67217915 7.264395 119.69238949 C7.27347985 128.30577509 7.27474728 136.91913622 7.26951766 145.53252506 C7.26640456 150.6724436 7.2659705 155.81232392 7.27259064 160.95223999 C7.27838088 165.78513767 7.27433648 170.6179307 7.26280212 175.45081711 C7.26016452 177.22127484 7.26090522 178.99174142 7.26532745 180.76219559 C7.27081997 183.18508726 7.26390418 185.60764687 7.25396729 188.03051758 C7.26065945 189.07295262 7.26065945 189.07295262 7.26748681 190.13644695 C7.2282401 195.09473174 6.51631237 199.30607927 5 204 C1.2699844 206.48667707 -0.66513916 206.2589418 -5.12329102 206.2746582 C-6.20711563 206.2823246 -6.20711563 206.2823246 -7.31283569 206.29014587 C-9.70994301 206.3040771 -12.10676313 206.30307952 -14.50390625 206.30078125 C-16.18285731 206.30467225 -17.8618074 206.30900775 -19.54075623 206.31376648 C-23.0723691 206.32124059 -26.6038821 206.32093319 -30.13549805 206.31567383 C-34.60996655 206.30994146 -39.08401264 206.326651 -43.5584116 206.3500185 C-47.03596803 206.36494474 -50.51342786 206.36560121 -53.99101067 206.36250877 C-55.63683837 206.36301471 -57.28267258 206.3681119 -58.9284687 206.37832069 C-73.40308307 206.45694053 -88.27227254 205.4358244 -101.9375 200.25 C-102.97958618 199.86702759 -102.97958618 199.86702759 -104.04272461 199.47631836 C-110.23723114 197.09834606 -115.68109523 193.97592549 -121 190 C-121.71414062 189.50242187 -122.42828125 189.00484375 -123.1640625 188.4921875 C-133.8488794 180.28261776 -138.90283555 166.56381725 -140.6875 153.625 C-140.81559481 152.08513685 -140.9177404 150.54299066 -141 149 C-141.05285156 148.04738281 -141.10570312 147.09476563 -141.16015625 146.11328125 C-141.64805897 128.8669806 -137.8610663 113.70560764 -125.9296875 100.83984375 C-124.05043689 99.04808861 -122.11211853 97.50664455 -120 96 C-121.38216256 92.89355544 -123.01085765 90.80108494 -125.375 88.375 C-134.916289 77.66336578 -135.76150169 62.83556438 -135.15234375 49.12646484 C-134.21733307 36.07527412 -129.80664608 23.9151328 -120 15 C-108.75732696 6.35178997 -94.33126917 0.39015876 -80 1 C-80 1.33 -80 1.66 -80 2 C-81.2375 2.185625 -81.2375 2.185625 -82.5 2.375 C-95.60882927 4.71586237 -109.88874542 9.80852216 -118 21 C-125.26773481 32.5870604 -126.97668923 46.46727635 -124.46484375 59.8515625 C-123.78544388 62.01227683 -123.00355387 63.9714488 -122 66 C-121.69835937 66.62003906 -121.39671875 67.24007812 -121.0859375 67.87890625 C-115.34884297 78.67677116 -106.76610775 83.91056724 -96 89 C-96.33 89.66 -96.66 90.32 -97 91 C-98.64871367 91.48283757 -100.32099728 91.88621608 -102 92.25 C-111.99670645 94.84317937 -118.90385148 100.59407885 -124.40625 109.19921875 C-129.53404494 117.97907694 -130.34213734 125.32201587 -130.3125 135.375 C-130.32861328 136.46039063 -130.34472656 137.54578125 -130.36132812 138.6640625 C-130.36536808 145.35422531 -129.58741721 150.82756897 -127 157 C-126.73082764 157.680625 -126.46165527 158.36125 -126.18432617 159.0625 C-122.02926074 169.14658164 -112.89219919 177.7104623 -103 182 C-69.41713317 194.66674247 -37.5027099 190.47912903 0 191 C0 127.97 0 64.94 0 0 Z " fill="#020202" transform="translate(159,106)"/>
<path d="M0 0 C1.92746063 -0.0049926 1.92746063 -0.0049926 3.89385986 -0.01008606 C6.59672895 -0.01603376 9.29956625 -0.01793015 12.00244141 -0.01733398 C15.45782585 -0.01723185 18.91300721 -0.03095625 22.36834335 -0.04810619 C25.68306537 -0.06190836 28.99774962 -0.06131443 32.3125 -0.0625 C33.54901306 -0.06968552 34.78552612 -0.07687103 36.05950928 -0.08427429 C37.78720551 -0.07965935 37.78720551 -0.07965935 39.54980469 -0.07495117 C40.55968445 -0.07637619 41.56956421 -0.07780121 42.61004639 -0.07926941 C45.58195709 0.18498125 47.73253671 0.82550607 50.390625 2.16796875 C52.61168183 6.61008242 52.29622909 11.3934525 51.390625 16.16796875 C48.95703519 20.63545274 46.00797026 24.49213416 42.80175781 28.42871094 C41.45187984 30.09247057 40.14525129 31.78061205 38.8515625 33.48828125 C36.79231185 36.2060512 34.70850944 38.90337794 32.61425781 41.59423828 C26.19578074 49.84912719 19.85653977 58.16598058 13.515625 66.48046875 C12.83056885 67.37830078 12.1455127 68.27613281 11.43969727 69.20117188 C8.22776915 73.41727939 5.02880388 77.64153018 1.87109375 81.8984375 C1.33274902 82.62313232 0.7944043 83.34782715 0.23974609 84.09448242 C-0.74933496 85.42912897 -1.73497137 86.76633876 -2.71630859 88.10668945 C-9.90893873 97.81242298 -9.90893873 97.81242298 -14.6171875 98.796875 C-16.16019531 98.76400391 -16.16019531 98.76400391 -17.734375 98.73046875 C-18.76820313 98.73175781 -19.80203125 98.73304688 -20.8671875 98.734375 C-23.609375 98.16796875 -23.609375 98.16796875 -25.25749207 96.66186523 C-27.19708641 93.08378359 -27.01949778 89.66715073 -26.98168945 85.69921875 C-26.98534012 84.84674561 -26.98899078 83.99427246 -26.99275208 83.1159668 C-27.00085407 80.29976442 -26.98725038 77.48413807 -26.97265625 74.66796875 C-26.9721376 72.71028646 -26.97265549 70.75260365 -26.97416687 68.79492188 C-26.97407716 64.69262921 -26.9636506 60.59053313 -26.94555664 56.48828125 C-26.92286961 51.22896067 -26.92232556 45.96992734 -26.92907429 40.71057129 C-26.93241521 36.66826829 -26.92578183 32.62603081 -26.91594505 28.58374023 C-26.91209491 26.64445336 -26.91094407 24.70515919 -26.9125309 22.76586914 C-26.91290161 20.05601098 -26.9002796 17.34652154 -26.8840332 14.63671875 C-26.88651062 13.83451904 -26.88898804 13.03231934 -26.89154053 12.20581055 C-26.82480718 5.23404901 -26.82480718 5.23404901 -24.609375 2.16796875 C-17.69175723 -1.29084013 -7.53064888 0.00682202 0 0 Z " fill="#F6F6F6" transform="translate(219.609375,104.83203125)"/>
<path d="M0 0 C7.54596275 8.83429785 9.73318605 18.21759047 9.8125 29.5 C9.833125 30.23347656 9.85375 30.96695313 9.875 31.72265625 C9.91053829 36.68913252 8.83923035 39.52588916 6.5625 44 C6.48699867 47.13752404 6.48699867 47.13752404 7 50.3125 C7.67937895 56.99942094 8.0105467 62.89914084 3.6875 68.375 C-5.12346229 72.95670039 -13.80052761 73.29447659 -23.5625 73.375 C-25.08194214 73.39578613 -25.08194214 73.39578613 -26.63208008 73.41699219 C-37.05284407 73.35255658 -45.71874639 71.27079023 -53.4375 64 C-61.93216315 55.37260774 -61.87902559 43.04198034 -61.79101562 31.65869141 C-61.62523768 25.08796407 -61.02688012 19.10801358 -58.4375 13 C-58.0971875 12.19433594 -57.756875 11.38867188 -57.40625 10.55859375 C-53.42544097 2.39524551 -46.84807391 -2.04072399 -38.4375 -5 C-25.23605649 -7.67418685 -11.78320782 -6.85568455 0 0 Z " fill="#F5F5F5" transform="translate(215.4375,345)"/>
<path d="M0 0 C5.48255173 5.21511018 8.27577704 12.40333769 8.70294189 19.90332031 C8.7097699 20.76538086 8.7165979 21.62744141 8.72363281 22.515625 C8.73324036 23.50014648 8.7428479 24.48466797 8.75274658 25.49902344 C8.75699646 26.5512207 8.76124634 27.60341797 8.765625 28.6875 C8.77132507 29.77836914 8.77702515 30.86923828 8.78289795 31.99316406 C8.79232925 34.29621414 8.79887449 36.5992776 8.80273438 38.90234375 C8.81246469 42.42471711 8.84351632 45.94651285 8.875 49.46875 C8.8815281 51.70832988 8.88677933 53.94791391 8.890625 56.1875 C8.9029718 57.23969727 8.9153186 58.29189453 8.92803955 59.37597656 C8.89957064 68.71530756 8.89957064 68.71530756 5.5625 72.4375 C2.78067403 73.36477532 0.8339167 73.62468757 -2.05859375 73.75390625 C-3.44751831 73.81735229 -3.44751831 73.81735229 -4.86450195 73.88208008 C-10.0550483 74.08539156 -15.24562998 74.27133409 -20.4375 74.4375 C-21.3872168 74.47294922 -22.33693359 74.50839844 -23.31542969 74.54492188 C-44.8595396 75.29762162 -44.8595396 75.29762162 -52.2890625 68.82421875 C-57.93241032 62.79305793 -58.78310489 56.47827841 -58.75 48.5 C-58.76611328 47.72720703 -58.78222656 46.95441406 -58.79882812 46.15820312 C-58.80334048 40.8200869 -57.83945652 37.20538369 -55.4375 32.4375 C-54.09060085 29.86650598 -54.09060085 29.86650598 -53.4375 27.4375 C-53.9015625 26.62152344 -53.9015625 26.62152344 -54.375 25.7890625 C-55.89846321 22.41727996 -55.76654711 19.13043681 -55.75 15.5 C-55.76611328 14.79681641 -55.78222656 14.09363281 -55.79882812 13.36914062 C-55.80304869 8.86579405 -55.30323585 5.94992845 -52.4375 2.4375 C-38.01752781 -7.80200319 -15.5417052 -7.06441145 0 0 Z " fill="#F5F5F5" transform="translate(477.4375,343.5625)"/>
<path d="M0 0 C3.88757835 1.25822038 7.184004 -0.14313032 10.8828125 -1.453125 C17.30305787 -3.31199337 25.03169635 -3.68032901 31.390625 -1.55078125 C37.18174426 1.71910928 39.98914422 6.82203843 42.8828125 12.609375 C42.97758595 14.11555763 43.01075605 15.62584907 43.01220703 17.13500977 C43.01535919 18.07260635 43.01851135 19.01020294 43.02175903 19.97621155 C43.01872269 21.49812355 43.01872269 21.49812355 43.015625 23.05078125 C43.01658173 24.08879379 43.01753845 25.12680634 43.01852417 26.1962738 C43.01920542 28.39281271 43.01735494 30.58935362 43.01318359 32.78588867 C43.00782921 36.1613412 43.01313323 39.53666098 43.01953125 42.91210938 C43.01887057 45.04166696 43.0175896 47.17122447 43.015625 49.30078125 C43.01764923 50.31741348 43.01967346 51.33404572 43.02175903 52.38148499 C43.01703079 53.78315163 43.01703079 53.78315163 43.01220703 55.21313477 C43.01141144 56.0398317 43.01061584 56.86652863 43.00979614 57.71827698 C42.8828125 59.609375 42.8828125 59.609375 41.8828125 60.609375 C39.35231848 60.68251067 36.84976413 60.70185027 34.3203125 60.671875 C33.60939453 60.66736328 32.89847656 60.66285156 32.16601562 60.65820312 C30.40491237 60.64638364 28.64385214 60.62844763 26.8828125 60.609375 C25.7412503 58.3262506 25.72946878 56.97458195 25.67749023 54.43505859 C25.6475724 53.14394669 25.6475724 53.14394669 25.61705017 51.82675171 C25.60033768 50.89650177 25.58362518 49.96625183 25.56640625 49.0078125 C25.54562515 48.05621246 25.52484406 47.10461243 25.50343323 46.12417603 C25.43793117 43.07765068 25.3790497 40.03103757 25.3203125 36.984375 C25.27712791 34.92186584 25.23351364 32.85936563 25.18945312 30.796875 C25.0822491 25.73446546 24.98098348 20.67196745 24.8828125 15.609375 C21.23073284 13.68188851 19.06783748 12.88504375 14.8828125 13.609375 C11.18212604 15.22367901 9.01582557 17.17492879 6.8828125 20.609375 C5.39168619 27.06156745 5.8532865 33.90773998 5.9453125 40.484375 C5.94603254 43.20899761 5.93585007 45.93339857 5.92344666 48.6579895 C5.91984139 50.34848943 5.92621592 52.03904498 5.94337463 53.72946167 C5.95856664 55.68947787 5.92567972 57.64976874 5.8828125 59.609375 C4.8828125 60.609375 4.8828125 60.609375 1.7578125 60.7421875 C0.4790625 60.73960937 -0.7996875 60.73703125 -2.1171875 60.734375 C-3.3959375 60.73695313 -4.6746875 60.73953125 -5.9921875 60.7421875 C-9.1171875 60.609375 -9.1171875 60.609375 -10.1171875 59.609375 C-10.24046855 56.71246122 -10.30334941 53.83573095 -10.328125 50.9375 C-10.35620325 49.14061604 -10.38486778 47.34374117 -10.4140625 45.546875 C-10.45527635 42.70508163 -10.49214958 39.86345606 -10.51855469 37.02148438 C-10.54620764 34.28479608 -10.59209148 31.54888708 -10.640625 28.8125 C-10.64387787 27.96649231 -10.64713074 27.12048462 -10.65048218 26.24884033 C-10.75709687 21.11824304 -11.30850219 17.41806031 -15.1171875 13.609375 C-19.20761934 12.81124196 -21.89571663 13.63799895 -25.2734375 15.8984375 C-29.08464905 19.35655602 -29.67328114 22.32518721 -30.0042572 27.24249268 C-30.13916947 31.65994977 -30.11651518 36.06586216 -30.0546875 40.484375 C-30.05396746 43.20899761 -30.06414993 45.93339857 -30.07655334 48.6579895 C-30.08015861 50.34848943 -30.07378408 52.03904498 -30.05662537 53.72946167 C-30.04143336 55.68947787 -30.07432028 57.64976874 -30.1171875 59.609375 C-31.1171875 60.609375 -31.1171875 60.609375 -34.2421875 60.7421875 C-35.5209375 60.73960937 -36.7996875 60.73703125 -38.1171875 60.734375 C-39.3959375 60.73695313 -40.6746875 60.73953125 -41.9921875 60.7421875 C-45.1171875 60.609375 -45.1171875 60.609375 -46.1171875 59.609375 C-46.24055924 57.76905511 -46.29510058 55.92408089 -46.32250977 54.07983398 C-46.34245499 52.89868515 -46.36240021 51.71753632 -46.38294983 50.50059509 C-46.40801857 48.57250755 -46.40801857 48.57250755 -46.43359375 46.60546875 C-46.45437485 45.29731705 -46.47515594 43.98916534 -46.49656677 42.64137268 C-46.5518505 39.15782053 -46.60123181 35.6742084 -46.64941406 32.19055176 C-46.69958324 28.6380477 -46.75529317 25.0856311 -46.81054688 21.53320312 C-46.91820541 14.55866954 -47.01963317 7.58405702 -47.1171875 0.609375 C-42.98883582 -1.72054373 -39.31194036 -1.58366671 -34.6796875 -1.453125 C-1.76479979 -0.69029069 -1.76479979 -0.69029069 0 0 Z " fill="#F6F6F6" transform="translate(75.1171875,341.390625)"/>
<path d="M0 0 C0.73347656 -0.01160156 1.46695312 -0.02320313 2.22265625 -0.03515625 C6.99776494 -0.00952955 10.42830347 0.63798345 14.5 3.375 C18.17103132 9.22787069 18.17926455 16.60990056 16.98948669 23.20472717 C16.4804966 26.50131827 16.39365005 29.57765764 16.41821289 32.91186523 C16.4247438 34.19016708 16.43127472 35.46846893 16.43800354 36.7855072 C16.44661502 37.79909459 16.44661502 37.79909459 16.45540047 38.83315849 C16.47291658 40.96528186 16.48312962 43.097329 16.49131775 45.22950745 C16.51566048 51.28825071 16.55127521 57.34689085 16.59594727 63.40551758 C16.62283569 67.12122487 16.63980846 70.83687339 16.65081596 74.55265999 C16.65699327 75.96197752 16.66695742 77.37128404 16.68089485 78.78054619 C16.70026651 80.75654171 16.70597139 82.73265663 16.71118164 84.70874023 C16.71863907 85.82981674 16.7260965 86.95089325 16.73377991 88.10594177 C16.40339515 92.72587259 15.92958702 97.03047478 12.46484375 100.2890625 C8.28497724 101.8200281 4.47945028 101.81120485 0.0625 101.75 C-0.77087891 101.76160156 -1.60425781 101.77320313 -2.46289062 101.78515625 C-7.50873474 101.76122339 -11.19002097 101.28474813 -15.5 98.375 C-16.62218565 95.00844306 -16.61351614 92.49550409 -16.59765625 88.94750977 C-16.59619598 88.30000763 -16.59473572 87.65250549 -16.5932312 86.98538208 C-16.58942892 85.58089497 -16.58331624 84.17641265 -16.57516479 82.77194405 C-16.562397 80.5484687 -16.55588436 78.32505304 -16.55102539 76.10154724 C-16.53765562 70.57881598 -16.51346017 65.05614146 -16.48962402 59.53344727 C-16.46989094 54.86693072 -16.45425038 50.2004353 -16.44406128 45.53388786 C-16.43758372 43.34470197 -16.42507492 41.15560314 -16.41235352 38.96644592 C-16.40872015 37.62159297 -16.40536852 36.27673922 -16.40234375 34.93188477 C-16.39710693 33.75956802 -16.39187012 32.58725128 -16.38647461 31.37940979 C-16.48320434 28.81949118 -16.81547069 26.81602739 -17.5 24.375 C-17.64411629 21.91948015 -17.72054408 19.45956898 -17.75 17 C-17.77578125 15.71351563 -17.8015625 14.42703125 -17.828125 13.1015625 C-17.46898094 9.02271206 -16.81251776 6.74661203 -14.5 3.375 C-9.78747577 0.09009341 -5.53663578 -0.0875742 0 0 Z " fill="#040404" transform="translate(373.5,315.625)"/>
<path d="M0 0 C0.763125 0.0825 1.52625 0.165 2.3125 0.25 C3.89366025 3.4123205 3.44187122 6.80841707 3.42602539 10.27978516 C3.42617142 11.10913071 3.42631744 11.93847626 3.4264679 12.79295349 C3.42576971 15.54168285 3.41798171 18.29034494 3.41015625 21.0390625 C3.40829174 22.94192467 3.40686799 24.84478732 3.40586853 26.74765015 C3.40204599 31.76181356 3.39221793 36.77594811 3.38116455 41.7901001 C3.36914871 47.80313521 3.36454694 53.81617996 3.35871124 59.82922363 C3.34900605 68.96950251 3.32984765 78.10971803 3.3125 87.25 C26.0825 87.25 48.8525 87.25 72.3125 87.25 C72.3125 86.59 72.3125 85.93 72.3125 85.25 C71.72726562 85.01925781 71.14203125 84.78851563 70.5390625 84.55078125 C67.73643331 82.91345577 66.52564417 81.10867546 64.6875 78.4375 C61.62834397 74.09087793 58.50282805 69.8268522 55.25 65.625 C54.82178955 65.07086426 54.3935791 64.51672852 53.95239258 63.94580078 C52.74053007 62.37942257 51.52657004 60.81466782 50.3125 59.25 C49.71695313 58.48042969 49.12140625 57.71085937 48.5078125 56.91796875 C45.93729971 53.60336015 43.35342369 50.29971146 40.75390625 47.0078125 C36.41547503 41.50982168 32.10452885 36.00508493 27.9375 30.375 C25.37311098 26.9156253 22.75122428 23.54269474 20.00390625 20.2265625 C19.42495605 19.52644043 18.84600586 18.82631836 18.24951172 18.10498047 C17.11619725 16.74139725 15.97628408 15.38326062 14.82861328 14.03173828 C11.20946447 9.67836558 8.67553224 5.39946494 6.3125 0.25 C9.78737804 0.50038664 11.06453683 0.98784216 13.49609375 3.55859375 C14.23988281 4.59113281 14.98367187 5.62367188 15.75 6.6875 C16.62249778 7.87458095 17.49626971 9.06072611 18.37109375 10.24609375 C18.84015137 10.8891748 19.30920898 11.53225586 19.79248047 12.19482422 C22.5595418 15.93609025 25.44451062 19.5859277 28.3125 23.25 C33.12771036 29.4301316 37.91675992 35.62923331 42.6875 41.84375 C45.87878058 45.99241475 49.09685929 50.12020963 52.3125 54.25 C63.71630729 68.90436792 63.71630729 68.90436792 67.046875 73.3046875 C68.55306621 75.26273608 70.1057924 77.18587764 71.703125 79.0703125 C76.52597292 84.98926222 78.17978383 89.0384238 77.88671875 96.71875 C77.20955874 99.70378189 76.79000567 100.48314269 74.3125 102.25 C71.12463379 102.61749268 71.12463379 102.61749268 67.13476562 102.60644531 C66.40762863 102.60848969 65.68049164 102.61053406 64.93132019 102.61264038 C62.5268746 102.61564936 60.12311413 102.59716778 57.71875 102.578125 C56.04870778 102.57506733 54.37866302 102.57319127 52.70861816 102.57244873 C49.20815271 102.56784487 45.70791719 102.55341628 42.20751953 102.53125 C37.7182511 102.50296762 33.22916382 102.49203849 28.73981476 102.4875679 C25.29118026 102.4834127 21.84258245 102.47359437 18.39396667 102.46169281 C16.73854364 102.45599146 15.08311708 102.4512323 13.4276886 102.44742584 C11.11514076 102.44055773 8.80273637 102.42692262 6.49023438 102.41113281 C5.17357788 102.40430481 3.85692139 102.39747681 2.50036621 102.39044189 C-0.6875 102.25 -0.6875 102.25 -3.6875 101.25 C-6.26184705 96.84371431 -5.97681771 92.24740626 -5.9621582 87.30053711 C-5.96726913 86.40890366 -5.97238007 85.5172702 -5.97764587 84.59861755 C-5.9915203 81.65812426 -5.99058711 78.71786583 -5.98828125 75.77734375 C-5.99216855 73.73140882 -5.99650329 71.6854747 -6.00126648 69.63954163 C-6.00872346 65.354964 -6.00844058 61.07046879 -6.00317383 56.78588867 C-5.99737124 51.29226051 -6.01433186 45.79896862 -6.0375185 40.30539608 C-6.05223842 36.08209762 -6.05313006 31.85888056 -6.05000877 27.63556099 C-6.05052258 25.60974014 -6.05577135 23.58391481 -6.06582069 21.55811882 C-6.07813782 18.72854487 -6.07142251 15.89963149 -6.05981445 13.07006836 C-6.06745819 12.23203674 -6.07510193 11.39400513 -6.08297729 10.53057861 C-6.05255494 7.18064668 -5.92733724 4.69871093 -4.3321991 1.71437073 C-2.6875 0.25 -2.6875 0.25 0 0 Z " fill="#020202" transform="translate(198.6875,209.75)"/>
<path d="M0 0 C24.29865649 0 42.28447877 1.02467839 59.84375 17.72265625 C69.77376451 28.21033461 72.37196801 42.43908615 72.2109375 56.46484375 C71.30696321 71.61478325 66.1137165 83.05406294 55.1171875 93.484375 C45.17562103 101.90770864 31.06257966 106.91134277 18 106 C18 105.67 18 105.34 18 105 C19.55847656 104.65388672 19.55847656 104.65388672 21.1484375 104.30078125 C35.61083801 100.97038334 47.42744138 96.46848866 55.6484375 83.43359375 C62.27754153 71.49737464 63.30443613 60.39924303 60.03515625 47.24609375 C56.40512533 35.86286472 48.77592053 27.74861858 38.375 22.1875 C29.91217447 18.06227218 21.10566962 16.38231526 11.77832031 15.46826172 C10.88220032 15.38003143 9.98608032 15.29180115 9.06280518 15.20089722 C8.38207947 15.13460114 7.70135376 15.06830505 7 15 C7.00222061 16.13783432 7.00444122 17.27566864 7.00672913 18.44798279 C7.02695933 29.14630749 7.04197155 39.84462834 7.05181217 50.5429678 C7.05704131 56.04370862 7.06413951 61.54443405 7.07543945 67.04516602 C7.08626725 72.3489656 7.0922766 77.65275035 7.09487724 82.95656013 C7.09673169 84.98485612 7.10035267 87.01315126 7.10573006 89.04144096 C7.11293906 91.87196514 7.113991 94.70242718 7.11352539 97.53295898 C7.11712067 98.38028091 7.12071594 99.22760284 7.12442017 100.1006012 C7.11405216 105.88594784 7.11405216 105.88594784 6 107 C4.02 107 2.04 107 0 107 C0 71.69 0 36.38 0 0 Z " fill="#020202" transform="translate(364,148)"/>
<path d="M0 0 C-1.93307497 1.28871665 -3.8904687 2.54202443 -5.875 3.75 C-12.82231966 8.75207016 -16.22008637 14.66502811 -18 23 C-18.3102649 26.0654453 -18.41064262 29.10743236 -18.4375 32.1875 C-18.4475708 32.93547852 -18.4576416 33.68345703 -18.46801758 34.45410156 C-18.3389314 42.75589931 -15.29953633 50.57502451 -10 57 C-1.09404551 64.08799589 12.31381625 62.78047367 23.0390625 61.69140625 C26.260133 61.08274243 28.79408511 60.13058018 31.5625 58.375 C33.70783472 54.83053395 33.27328569 52.09928529 33 48 C31.60386935 48.14295891 30.20810692 48.28951558 28.8125 48.4375 C28.03519531 48.51871094 27.25789063 48.59992188 26.45703125 48.68359375 C23.99304911 48.96655514 23.99304911 48.96655514 21.5703125 49.51953125 C15.51962869 50.65058613 9.25949401 50.79280492 3.4375 48.75 C0.89375971 46.92372492 -0.59836489 45.80327023 -2 43 C-2 40.69 -2 38.38 -2 36 C9.88 35.67 21.76 35.34 34 35 C36.59133132 29.81733735 35.54686744 22.29514314 34.24609375 16.8359375 C32.5513523 11.90457219 31.02662256 8.45029299 27 5 C26.01 4.67 25.02 4.34 24 4 C24 3.34 24 2.68 24 2 C21.525 1.505 21.525 1.505 19 1 C22.5333096 -0.17776987 23.11124647 0.18929232 26.375 1.6875 C27.12523437 2.02136719 27.87546875 2.35523438 28.6484375 2.69921875 C33.85316558 5.57824607 36.66008303 8.51796122 39.25 13.875 C39.75015625 14.88304687 40.2503125 15.89109375 40.765625 16.9296875 C43.08010904 22.68660034 43.20698434 28.38102281 43.25 34.5 C43.270625 35.23347656 43.29125 35.96695313 43.3125 36.72265625 C43.34803829 41.68913252 42.27673035 44.52588916 40 49 C39.92449867 52.13752404 39.92449867 52.13752404 40.4375 55.3125 C41.11687895 61.99942094 41.4480467 67.89914084 37.125 73.375 C28.31403771 77.95670039 19.63697239 78.29447659 9.875 78.375 C8.35555786 78.39578613 8.35555786 78.39578613 6.80541992 78.41699219 C-3.61534407 78.35255658 -12.28124639 76.27079023 -20 69 C-28.49466315 60.37260774 -28.44152559 48.04198034 -28.35351562 36.65869141 C-28.18773768 30.08796407 -27.58938012 24.10801358 -25 18 C-24.6596875 17.19433594 -24.319375 16.38867188 -23.96875 15.55859375 C-20.52591566 8.49845711 -15.33900488 4.43159053 -8.3125 1.125 C-5.26338645 0.089452 -3.17807575 -0.28891598 0 0 Z " fill="#030303" transform="translate(182,340)"/>
<path d="M0 0 C0 27.06 0 54.12 0 82 C0.66 82 1.32 82 2 82 C2.19851562 81.34644531 2.39703125 80.69289063 2.6015625 80.01953125 C4.58241808 75.74243248 7.43884626 72.35299433 10.375 68.6875 C11.64961846 67.0738488 12.92303414 65.45924689 14.1953125 63.84375 C14.83500977 63.03292969 15.47470703 62.22210938 16.13378906 61.38671875 C18.89190951 57.85932661 21.57580624 54.27871076 24.25 50.6875 C27.73617818 46.0136664 31.24573863 41.36269799 34.8125 36.75 C37.82414961 32.85486809 40.8011073 28.93801207 43.74609375 24.9921875 C44.40697998 24.10692383 45.06786621 23.22166016 45.7487793 22.30957031 C47.0506365 20.56317263 48.35039336 18.81520662 49.64770508 17.06542969 C59.61730783 3.69134609 59.61730783 3.69134609 63 2 C63.33 1.01 63.66 0.02 64 -1 C65.9375 -0.625 65.9375 -0.625 68 0 C70.22105683 4.44211367 69.90560409 9.22548375 69 14 C66.56641019 18.46748399 63.61734526 22.32416541 60.41113281 26.26074219 C59.06125484 27.92450182 57.75462629 29.6126433 56.4609375 31.3203125 C54.40168685 34.03808245 52.31788444 36.73540919 50.22363281 39.42626953 C43.80515574 47.68115844 37.46591477 55.99801183 31.125 64.3125 C30.43994385 65.21033203 29.7548877 66.10816406 29.04907227 67.03320312 C25.83714415 71.24931064 22.63817888 75.47356143 19.48046875 79.73046875 C18.94212402 80.45516357 18.4037793 81.1798584 17.84912109 81.92651367 C16.86004004 83.26116022 15.87440363 84.59837001 14.89306641 85.9387207 C7.70043627 95.64445423 7.70043627 95.64445423 2.9921875 96.62890625 C1.44917969 96.59603516 1.44917969 96.59603516 -0.125 96.5625 C-1.15882813 96.56378906 -2.19265625 96.56507813 -3.2578125 96.56640625 C-6 96 -6 96 -7.64811707 94.49389648 C-9.58771141 90.91581484 -9.41012278 87.49918198 -9.37231445 83.53125 C-9.37596512 82.67877686 -9.37961578 81.82630371 -9.38337708 80.94799805 C-9.39147907 78.13179567 -9.37787538 75.31616932 -9.36328125 72.5 C-9.3627626 70.54231771 -9.36328049 68.5846349 -9.36479187 66.62695312 C-9.36470216 62.52466046 -9.3542756 58.42256438 -9.33618164 54.3203125 C-9.31349461 49.06099192 -9.31295056 43.80195859 -9.31969929 38.54260254 C-9.32304021 34.50029954 -9.31640683 30.45806206 -9.30657005 26.41577148 C-9.30271991 24.47648461 -9.30156907 22.53719044 -9.3031559 20.59790039 C-9.30352661 17.88804223 -9.2909046 15.17855279 -9.2746582 12.46875 C-9.27713562 11.66655029 -9.27961304 10.86435059 -9.28216553 10.0378418 C-9.21543218 3.06608026 -9.21543218 3.06608026 -7 0 C-5 -1 -5 -1 0 0 Z " fill="#030303" transform="translate(202,107)"/>
<path d="M0 0 C-0.69867188 0.25394531 -1.39734375 0.50789063 -2.1171875 0.76953125 C-3.02726562 1.11371094 -3.93734375 1.45789063 -4.875 1.8125 C-5.77992188 2.14894531 -6.68484375 2.48539062 -7.6171875 2.83203125 C-10.29425849 3.89649024 -10.29425849 3.89649024 -12 7 C-12.02639829 9.29714187 -12.02639829 9.29714187 -11.625 11.6875 C-11.51414062 12.49574219 -11.40328125 13.30398438 -11.2890625 14.13671875 C-11.19367188 14.75160156 -11.09828125 15.36648438 -11 16 C-7.78883205 15.48206969 -4.95600781 14.60099756 -1.9375 13.4375 C3.65763994 11.55370917 9.15683042 11.1082372 15 12 C18.25 14.0625 18.25 14.0625 20 17 C20.06925191 19.33230543 20.07691146 21.66793459 20 24 C18.53240234 24.07347656 18.53240234 24.07347656 17.03515625 24.1484375 C1.12526642 24.75800543 1.12526642 24.75800543 -12 33 C-15.153751 37.82821815 -14.56056776 43.46528032 -14 49 C-12.74691926 53.65215603 -10.77488706 56.3112115 -7.1875 59.5 C-1.06231365 62.51588696 8.48648262 62.10799718 14.82421875 60.109375 C17.39581214 58.79818555 19.00576037 57.06300651 21 55 C21.66 55 22.32 55 23 55 C23 56.98 23 58.96 23 61 C28.94 60.505 28.94 60.505 35 60 C35.14898399 53.32895547 35.25751899 46.65889188 35.32958984 39.98657227 C35.35965186 37.71979896 35.40051357 35.45314092 35.45263672 33.18676758 C35.52591663 29.91719036 35.55956336 26.64915853 35.5859375 23.37890625 C35.61690521 22.37541641 35.64787292 21.37192657 35.67977905 20.33802795 C35.68319173 13.10644393 33.87674932 8.39602012 29 3 C27.69504544 1.96323996 26.36821531 0.95171669 25 0 C30.05273037 0.48121242 33.15712498 1.64770477 37 5 C41.05183467 11.44808098 43.10079019 17.45964649 43.16113281 25.078125 C43.17074036 26.06264648 43.1803479 27.04716797 43.19024658 28.06152344 C43.19449646 29.1137207 43.19874634 30.16591797 43.203125 31.25 C43.20882507 32.34086914 43.21452515 33.43173828 43.22039795 34.55566406 C43.22982925 36.85871414 43.23637449 39.1617776 43.24023438 41.46484375 C43.24996469 44.98721711 43.28101632 48.50901285 43.3125 52.03125 C43.3190281 54.27082988 43.32427933 56.51041391 43.328125 58.75 C43.3404718 59.80219727 43.3528186 60.85439453 43.36553955 61.93847656 C43.33707064 71.27780756 43.33707064 71.27780756 40 75 C37.21817403 75.92727532 35.2714167 76.18718757 32.37890625 76.31640625 C30.98998169 76.37985229 30.98998169 76.37985229 29.57299805 76.44458008 C24.3824517 76.64789156 19.19187002 76.83383409 14 77 C13.0502832 77.03544922 12.10056641 77.07089844 11.12207031 77.10742188 C-10.4220396 77.86012162 -10.4220396 77.86012162 -17.8515625 71.38671875 C-23.49491032 65.35555793 -24.34560489 59.04077841 -24.3125 51.0625 C-24.32861328 50.28970703 -24.34472656 49.51691406 -24.36132812 48.72070312 C-24.36584048 43.3825869 -23.40195652 39.76788369 -21 35 C-19.65310085 32.42900598 -19.65310085 32.42900598 -19 30 C-19.4640625 29.18402344 -19.4640625 29.18402344 -19.9375 28.3515625 C-21.46096321 24.97977996 -21.32904711 21.69293681 -21.3125 18.0625 C-21.32861328 17.35931641 -21.34472656 16.65613281 -21.36132812 15.93164062 C-21.36554733 11.42975008 -20.88649475 8.49782661 -18 5 C-15.66015625 3.453125 -15.66015625 3.453125 -13.0625 2.25 C-12.20785156 1.84265625 -11.35320312 1.4353125 -10.47265625 1.015625 C-6.51999776 -0.60789981 -4.14638094 -1.3327653 0 0 Z " fill="#040404" transform="translate(443,341)"/>
<path d="M0 0 C6.57242927 1.46053984 6.57242927 1.46053984 8.20939636 3.52587891 C9.40153136 7.25655531 9.28609765 10.95907959 9.2746582 14.8359375 C9.27976913 15.72742493 9.28488007 16.61891235 9.29014587 17.53741455 C9.30404267 20.4833447 9.30308523 23.42904097 9.30078125 26.375 C9.30466772 28.42236417 9.30900229 30.46972753 9.31376648 32.51708984 C9.32122858 36.80764378 9.32093717 41.09811543 9.31567383 45.38867188 C9.30987485 50.89017576 9.32682069 56.39134347 9.3500185 61.89279175 C9.36473984 66.1203814 9.3656298 70.34788975 9.36250877 74.57550049 C9.36302265 76.60411241 9.36827272 78.63272881 9.37832069 80.66131592 C9.39063866 83.49578816 9.38392165 86.32960104 9.37231445 89.1640625 C9.37995819 90.00366516 9.38760193 90.84326782 9.39547729 91.70831299 C9.36531425 95.03590566 9.25390586 97.52674391 7.66423035 100.48974609 C4.69655123 103.18285224 1.84798252 103.11273762 -1.96484375 103.0625 C-2.92970703 103.05476563 -3.89457031 103.04703125 -4.88867188 103.0390625 C-6.91731835 103.01307087 -8.94596419 102.9870294 -10.97460938 102.9609375 C-11.94076172 102.95320313 -12.90691406 102.94546875 -13.90234375 102.9375 C-15.22480103 102.92009766 -15.22480103 102.92009766 -16.57397461 102.90234375 C-18.88506448 102.99537343 -20.77415437 103.41547115 -23 104 C-33.88845094 104.93765613 -44.46417379 105.47404939 -53.1640625 98.1875 C-62.61732923 88.83735981 -63.33384003 77.98449529 -63.4375 65.375 C-63.4478125 64.32634766 -63.458125 63.27769531 -63.46875 62.19726562 C-63.34347494 51.11042304 -61.23939143 40.42542834 -53.296875 32.24609375 C-49.2749615 28.61762831 -45.74751383 26.12211173 -40.1875 25.875 C-39.465625 25.91625 -38.74375 25.9575 -38 26 C-38.53625 26.391875 -39.0725 26.78375 -39.625 27.1875 C-40.40875 27.785625 -41.1925 28.38375 -42 29 C-43.010625 29.763125 -44.02125 30.52625 -45.0625 31.3125 C-52.30677381 37.94023987 -52.68954987 47.20915473 -53.19140625 56.5703125 C-53.31278261 63.93381145 -52.64065462 70.82213606 -51 78 C-50.34 78 -49.68 78 -49 78 C-48.443125 78.9075 -47.88625 79.815 -47.3125 80.75 C-44.65544887 84.48423402 -42.34580676 86.64713146 -38 88 C-30.37878982 89.0522187 -24.36070658 88.50587791 -17.8046875 84.38671875 C-15.95701205 83.03641242 -15.95701205 83.03641242 -14.3828125 81.33203125 C-13 80 -13 80 -11 80 C-11 82.64 -11 85.28 -11 88 C-5.06 87.505 -5.06 87.505 1 87 C1.02314783 76.09957676 1.04092758 65.19915934 1.05181217 54.29871655 C1.05703564 49.23746562 1.06412361 44.17623149 1.07543945 39.11499023 C1.08628731 34.23263191 1.09228089 29.35028975 1.09487724 24.4679203 C1.09672805 22.60316017 1.10034211 20.73840095 1.10573006 18.87364769 C1.11296564 16.26625007 1.11398987 13.65891968 1.11352539 11.05151367 C1.1189183 9.88949936 1.1189183 9.88949936 1.12442017 8.70401001 C1.11828514 5.53125515 1.01107343 3.0332203 0 0 Z " fill="#060606" transform="translate(315,314)"/>
<path d="M0 0 C1.20317871 0.00749268 2.40635742 0.01498535 3.64599609 0.02270508 C5.15758301 0.05001709 6.66916992 0.0773291 8.2265625 0.10546875 C13.0528125 0.16734375 17.8790625 0.22921875 22.8515625 0.29296875 C22.8515625 16.13296875 22.8515625 31.97296875 22.8515625 48.29296875 C14.8515625 48.29296875 14.8515625 48.29296875 12.8515625 47.29296875 C12.8515625 37.06296875 12.8515625 26.83296875 12.8515625 16.29296875 C-1.50121905 16.48537291 -1.50121905 16.48537291 -13.6484375 23.41796875 C-15.88730206 27.70912582 -16.02101802 31.55827096 -15.1484375 36.29296875 C-12.8409881 41.00605688 -8.87831963 43.31301809 -4.1484375 45.29296875 C-7.1484375 46.29296875 -7.1484375 46.29296875 -9.48828125 45.47265625 C-16.34114949 42.03076453 -20.67498861 38.81352448 -23.609375 31.4453125 C-25.10540794 25.47202155 -24.69654376 19.38262387 -23.1484375 13.48046875 C-17.85051914 5.03691136 -10.05913435 -0.12896326 0 0 Z " fill="#090909" transform="translate(94.1484375,213.70703125)"/>
<path d="M0 0 C8.58 0 17.16 0 26 0 C26 13.86 26 27.72 26 42 C19 42 19 42 16 41 C16 32.75 16 24.5 16 16 C13.48375 16.268125 10.9675 16.53625 8.375 16.8125 C7.20396729 16.92815308 7.20396729 16.92815308 6.00927734 17.04614258 C0.93659067 17.63531601 -3.96732128 18.61381193 -7.4375 22.6875 C-8.31250383 26.28473798 -8.20740044 29.52958616 -7 33 C-5.17364891 35.12453086 -3.33870414 36.3772257 -1 38 C-0.34 38.66 0.32 39.32 1 40 C-4.83876482 39.70806176 -8.97863372 37.08996101 -13 33 C-15.88404922 28.40128826 -16.40762813 24.82657874 -16.375 19.4375 C-16.38273437 18.15746094 -16.39046875 16.87742188 -16.3984375 15.55859375 C-15.98442605 11.86090326 -15.2870851 9.90627156 -13 7 C-12.34 7 -11.68 7 -11 7 C-11 6.34 -11 5.68 -11 5 C-7.28026121 2.15549386 -4.62609198 1.6772494 0 2 C0 1.34 0 0.68 0 0 Z " fill="#090909" transform="translate(91,139)"/>
<path d="M0 0 C1.26714844 -0.01417969 2.53429687 -0.02835937 3.83984375 -0.04296875 C7.0625 0.1875 7.0625 0.1875 9.0625 2.1875 C9.30300903 4.62991333 9.30300903 4.62991333 9.28955078 7.73876953 C9.28939972 8.89982208 9.28924866 10.06087463 9.28909302 11.2571106 C9.27877045 12.51546722 9.26844788 13.77382385 9.2578125 15.0703125 C9.2549826 16.35485321 9.25215271 17.63939392 9.24923706 18.96286011 C9.24159809 22.37912767 9.22194752 25.79522537 9.1998291 29.21142578 C9.17937624 32.69691673 9.17023655 36.1824351 9.16015625 39.66796875 C9.13870175 46.50788231 9.10456271 53.347683 9.0625 60.1875 C6.07566593 61.68091703 3.31850226 61.31925178 0 61.3125 C-1.26972656 61.31507813 -2.53945313 61.31765625 -3.84765625 61.3203125 C-6.9375 61.1875 -6.9375 61.1875 -7.9375 60.1875 C-8.03655152 58.35177369 -8.06549207 56.51222425 -8.06689453 54.67382812 C-8.07004669 53.49590698 -8.07319885 52.31798584 -8.07644653 51.10437012 C-8.0744223 49.82211548 -8.07239807 48.53986084 -8.0703125 47.21875 C-8.07126923 45.91296997 -8.07222595 44.60718994 -8.07321167 43.26184082 C-8.07468833 40.49437278 -8.07253511 37.72693696 -8.06787109 34.95947266 C-8.06217381 31.40487351 -8.06545298 27.85034986 -8.07144356 24.29575348 C-8.07591747 20.91591286 -8.07278886 17.53609277 -8.0703125 14.15625 C-8.07233673 12.87399536 -8.07436096 11.59174072 -8.07644653 10.27062988 C-8.07329437 9.09270874 -8.07014221 7.9147876 -8.06689453 6.70117188 C-8.06609894 5.65828003 -8.06530334 4.61538818 -8.06448364 3.54089355 C-7.80018637 -1.3573397 -4.13159144 0.02097255 0 0 Z " fill="#F2F2F2" transform="translate(373.9375,340.8125)"/>
<path d="M0 0 C4.31168707 1.10850111 7.19325705 4.43644382 10.203125 7.56640625 C10.533125 7.89640625 10.863125 8.22640625 11.203125 8.56640625 C12.14735658 15.42430752 13.08438005 24.16677784 9.6640625 30.34765625 C5.70529374 33.95487412 1.63576412 35.7714115 -3.796875 35.56640625 C-7.20517006 34.24956498 -8.48070395 33.07273814 -10.4140625 29.9765625 C-12.09990056 25.81911439 -12.24197725 22.49842598 -12.171875 18.06640625 C-12.18347656 17.33292969 -12.19507813 16.59945313 -12.20703125 15.84375 C-12.17674368 10.20016684 -10.64168781 6.47926858 -7.609375 1.69140625 C-5.15262975 0.16652989 -2.86088778 -0.0794691 0 0 Z M-2.796875 17.56640625 C-5.41124758 21.48796511 -5.01390511 25.00877393 -4.796875 29.56640625 C-4.466875 30.55640625 -4.136875 31.54640625 -3.796875 32.56640625 C-0.92962814 31.99295688 0.0645765 31.70495475 2.203125 29.56640625 C2.55952061 27.46222657 2.55952061 27.46222657 2.515625 25.12890625 C2.53238281 24.34644531 2.54914063 23.56398438 2.56640625 22.7578125 C2.12181115 20.07590011 1.3473608 19.18893017 -0.796875 17.56640625 C-1.456875 17.56640625 -2.116875 17.56640625 -2.796875 17.56640625 Z " fill="#040404" transform="translate(289.796875,353.43359375)"/>
<path d="M0 0 C1.50433594 0.01353516 1.50433594 0.01353516 3.0390625 0.02734375 C3.80992187 0.03894531 4.58078125 0.05054688 5.375 0.0625 C5.705 1.0525 6.035 2.0425 6.375 3.0625 C7.365 3.3925 8.355 3.7225 9.375 4.0625 C10.14160988 12.98924617 10.14160988 12.98924617 7.5 16.6875 C3.16067335 18.59680373 -0.95322321 18.90569874 -5.625 18.0625 C-8.2112653 16.6211959 -9.37251916 15.79924738 -10.33984375 12.9765625 C-10.7175639 9.09333433 -10.90584648 6.70443481 -9.3125 3.0625 C-6.44148919 -0.34017948 -4.28220575 -0.04979309 0 0 Z " fill="#F5F5F5" transform="translate(374.625,315.9375)"/>
<path d="M0 0 C-0.99 0 -1.98 0 -3 0 C-3 10.56 -3 21.12 -3 32 C-5.64 30.02 -8.28 28.04 -11 26 C-14.09560335 25.41816214 -16.43667926 25.11365437 -19.5 25.125 C-20.22703125 25.104375 -20.9540625 25.08375 -21.703125 25.0625 C-23.46826182 25.01604903 -25.23425729 25.00428578 -27 25 C-27 24.67 -27 24.34 -27 24 C-22.05 24 -17.1 24 -12 24 C-12.05220703 22.13794922 -12.05220703 22.13794922 -12.10546875 20.23828125 C-12.13361584 18.59636774 -12.16091501 16.95443954 -12.1875 15.3125 C-12.21263672 14.49587891 -12.23777344 13.67925781 -12.26367188 12.83789062 C-12.32168834 8.06120146 -12.15725006 4.85635543 -9 1 C-5.65906623 -0.8846293 -3.61792602 -1.3399726 0 0 Z " fill="#0B0B0B" transform="translate(304,315)"/>
<path d="M0 0 C2.35796411 1.88637129 3.28741849 2.88610427 4.1875 5.75 C4.1875 7.73 4.1875 9.71 4.1875 11.75 C-3.0725 11.75 -10.3325 11.75 -17.8125 11.75 C-17.8125 4.38636364 -17.8125 4.38636364 -15.8125 1.75 C-10.59248679 -1.64907837 -5.79471101 -2.57542711 0 0 Z " fill="#080808" transform="translate(197.8125,353.25)"/>
<path d="M0 0 C1.26328125 0.02707031 2.5265625 0.05414063 3.828125 0.08203125 C4.79234375 0.11683594 5.7565625 0.15164063 6.75 0.1875 C7.10035569 3.58724781 7.25020312 6.79782565 6.75 10.1875 C2.65640571 14.38343415 -1.59769991 15.09778095 -7.25 15.1875 C-10.25 13.75 -10.25 13.75 -12.25 12.1875 C-12.18967927 10.7488506 -12.10079867 9.31138098 -12 7.875 C-11.95359375 7.07449219 -11.9071875 6.27398437 -11.859375 5.44921875 C-11.25 3.1875 -11.25 3.1875 -9.65625 1.40625 C-6.33524944 -0.27581522 -3.69997111 -0.10277698 0 0 Z " fill="#0B0B0B" transform="translate(456.25,375.8125)"/>
<path d="M0 0 C-0.59167969 0.23074219 -1.18335937 0.46148437 -1.79296875 0.69921875 C-6.96431909 2.83356073 -10.23739836 4.89534366 -14 9 C-14.66 9 -15.32 9 -16 9 C-16.45375 8.195625 -16.9075 7.39125 -17.375 6.5625 C-18.73420995 3.84763807 -18.73420995 3.84763807 -21.1875 3.1875 C-21.785625 3.125625 -22.38375 3.06375 -23 3 C-23 2.34 -23 1.68 -23 1 C-23.66 0.67 -24.32 0.34 -25 0 C-19 1 -19 1 -16.1875 1.75 C-12.29080782 2.05562292 -9.72579956 1.04979912 -6.1484375 -0.40625 C-3.69397269 -1.08457482 -2.378115 -0.8178133 0 0 Z " fill="#141414" transform="translate(94,340)"/>
<path d="M0 0 C-0.556875 0.4125 -1.11375 0.825 -1.6875 1.25 C-4.92744523 3.70185045 -8.12429015 6.12429015 -11 9 C-11 6.36 -11 3.72 -11 1 C-7.27569643 0.30710631 -3.78916254 -0.11144596 0 0 Z " fill="#080808" transform="translate(54,340)"/>
<path d="M0 0 C0.66 0.33 1.32 0.66 2 1 C-2.29 5.29 -6.58 9.58 -11 14 C-11.33 13.34 -11.66 12.68 -12 12 C-8.27653164 7.57905197 -4.70478962 3.42166518 0 0 Z " fill="#DFDFDF" transform="translate(47,201)"/>
<path d="M0 0 C0.66 0.33 1.32 0.66 2 1 C-1.63 4.63 -5.26 8.26 -9 12 C-9.99 11.67 -10.98 11.34 -12 11 C-10.56564079 9.5385774 -9.12739414 8.08096951 -7.6875 6.625 C-6.88699219 5.81289062 -6.08648437 5.00078125 -5.26171875 4.1640625 C-3 2 -3 2 0 0 Z " fill="#DFDFDF" transform="translate(52,116)"/>
<path d="M0 0 C0.66 0.33 1.32 0.66 2 1 C1.2884375 1.7115625 1.2884375 1.7115625 0.5625 2.4375 C-1.68076096 6.11644797 -1.73739578 9.7621112 -2 14 C-4.34168764 10.48746854 -4.49623677 9.13530644 -4 5 C-2 2.125 -2 2.125 0 0 Z " fill="#C4C4C4" transform="translate(434,343)"/>
<path d="M0 0 C0.99 0.33 1.98 0.66 3 1 C2.34 1.66 1.68 2.32 1 3 C-1.67905902 7.01858853 -1.32182663 9.25305716 -1 14 C-3.19398856 10.70901716 -3.21503664 10.15167419 -2.75 6.4375 C-2.66234375 5.65246094 -2.5746875 4.86742187 -2.484375 4.05859375 C-2 2 -2 2 0 0 Z " fill="#C4C4C4" transform="translate(367,317)"/>
<path d="M0 0 C0.66 0.33 1.32 0.66 2 1 C0.88121617 2.17262904 -0.24523051 3.33795138 -1.375 4.5 C-2.00148438 5.1496875 -2.62796875 5.799375 -3.2734375 6.46875 C-5 8 -5 8 -7 8 C-5.50902342 4.2047869 -3.24299151 2.38957269 0 0 Z " fill="#D2D2D2" transform="translate(273,342)"/>
<path d="M0 0 C-1.28299758 2.86207152 -2.530636 5.0245088 -5 7 C-5.99 7 -6.98 7 -8 7 C-6.42166216 3.84332432 -3.72820599 0 0 0 Z " fill="#D6D6D6" transform="translate(50,343)"/>
<path d="M0 0 C0.66 0.33 1.32 0.66 2 1 C-0.31 3.31 -2.62 5.62 -5 8 C-5.33 7.34 -5.66 6.68 -6 6 C-5.34 5.01 -4.68 4.02 -4 3 C-3.34 3 -2.68 3 -2 3 C-2 2.34 -2 1.68 -2 1 C-1.34 0.67 -0.68 0.34 0 0 Z " fill="#383838" transform="translate(82,143)"/>
</svg>
